<?xml version="1.0" standalone="no"?>
<!DOCTYPE svg PUBLIC "-//W3C//DTD SVG 20010904//EN"
 "http://www.w3.org/TR/2001/REC-SVG-20010904/DTD/svg10.dtd">
<svg version="1.0" xmlns="http://www.w3.org/2000/svg"
 width="1024.000000pt" height="1024.000000pt" viewBox="0 0 1024.000000 1024.000000"
 preserveAspectRatio="xMidYMid meet">

<g transform="translate(0.000000,1024.000000) scale(0.100000,-0.100000)"
fill="#000000" stroke="none">
<path d="M2530 9401 c-117 -26 -209 -65 -310 -132 -191 -128 -329 -321 -392
-549 l-23 -85 0 -3500 0 -3500 28 -100 c106 -386 411 -654 802 -705 67 -8 711
-10 2540 -8 l2450 3 95 26 c189 53 319 129 446 261 129 135 198 259 247 439
l22 84 0 2880 0 2880 -23 65 c-12 36 -34 83 -50 106 -39 59 -1697 1728 -1757
1769 -27 19 -77 45 -110 57 l-60 23 -1910 2 c-1813 2 -1914 1 -1995 -16z
m3782 -858 c4 -651 3 -636 73 -790 103 -225 295 -384 550 -455 78 -22 97 -22
643 -26 l562 -3 0 -2782 c0 -3060 4 -2847 -62 -2990 -78 -168 -228 -297 -413
-354 -58 -17 -161 -18 -2550 -18 l-2490 0 -81 27 c-86 29 -176 82 -243 143
-62 56 -137 175 -168 268 l-28 82 0 3490 0 3490 32 82 c62 161 169 280 315
353 149 73 13 68 2035 69 l1822 1 3 -587z m1638 -973 c0 -3 -208 -3 -462 0
-442 5 -466 7 -520 27 -162 61 -280 184 -335 348 l-27 80 -4 450 -3 450 675
-675 c372 -371 676 -677 676 -680z"/>
<path d="M3675 8180 c-270 -55 -459 -266 -516 -580 -18 -99 -15 -349 6 -445
67 -316 258 -515 540 -562 216 -36 410 24 557 171 67 68 137 197 145 267 4 36
1 48 -17 64 -19 17 -37 20 -124 21 -55 1 -112 -4 -124 -9 -14 -7 -37 -37 -54
-71 -17 -34 -40 -72 -52 -84 -67 -75 -220 -103 -330 -62 -158 60 -247 270
-232 550 15 296 124 455 320 468 84 5 135 -7 198 -47 40 -25 53 -43 88 -116
30 -62 48 -89 66 -95 14 -6 67 -10 118 -10 81 0 97 3 121 22 26 20 27 25 21
81 -20 192 -216 385 -441 432 -74 16 -224 18 -290 5z"/>
<path d="M4577 8160 c-20 -16 -27 -30 -27 -56 0 -18 80 -273 179 -566 291
-868 289 -863 323 -895 l29 -28 140 0 141 0 32 35 c33 37 27 19 380 1052 69
202 126 381 126 398 0 19 -9 40 -25 55 -23 23 -31 25 -130 25 -121 0 -154 -11
-178 -62 -18 -38 -337 -1087 -337 -1107 0 -8 -2 -12 -5 -9 -3 2 -52 159 -109
349 -239 787 -234 772 -261 799 -24 23 -33 25 -138 28 -103 3 -115 2 -140 -18z"/>
<path d="M4925 6285 c-469 -83 -844 -451 -931 -911 -21 -113 -21 -316 1 -428
77 -412 354 -736 752 -879 224 -81 541 -78 766 7 332 125 590 389 700 717 65
196 74 455 23 654 -35 137 -126 315 -217 428 -161 199 -389 341 -636 398 -117
26 -348 34 -458 14z m295 -265 c300 -38 560 -218 686 -475 69 -143 87 -224 87
-395 0 -129 -3 -155 -26 -233 -26 -84 -75 -191 -115 -250 l-19 -27 -36 53
c-36 52 -125 146 -177 185 -44 35 -153 90 -211 108 l-57 17 50 39 c58 46 122
141 143 212 21 71 19 200 -4 268 -88 255 -377 377 -616 259 -167 -83 -253
-233 -243 -423 7 -131 72 -249 180 -328 l37 -27 -57 -17 c-149 -47 -303 -158
-387 -281 -21 -30 -43 -54 -49 -52 -19 6 -111 200 -131 277 -28 104 -28 345
-1 440 84 295 297 522 574 610 141 46 239 56 372 40z m-27 -476 c45 -23 66
-44 88 -86 24 -47 24 -92 0 -143 -22 -48 -44 -69 -94 -90 -49 -20 -90 -19
-135 4 -70 36 -102 88 -102 163 0 118 138 205 243 152z m64 -800 c144 -29 260
-110 343 -238 l39 -60 -32 -23 c-53 -40 -188 -101 -273 -124 -62 -17 -108 -22
-214 -22 -118 0 -146 3 -225 27 -86 26 -215 87 -264 125 l-24 19 28 48 c120
205 363 302 622 248z"/>
<path d="M3053 3645 c-36 -15 -70 -63 -79 -111 -9 -51 26 -118 75 -143 l40
-21 2033 0 c1960 0 2035 1 2068 19 54 29 75 64 75 126 0 62 -22 100 -76 127
-32 17 -151 18 -2069 18 -1725 -1 -2040 -3 -2067 -15z"/>
<path d="M3055 2948 c-40 -22 -65 -52 -75 -90 -22 -78 24 -155 105 -177 28 -8
628 -10 2062 -8 l2022 2 28 21 c89 66 96 161 18 234 l-27 25 -2056 2 c-1493 2
-2062 -1 -2077 -9z"/>
<path d="M3082 2260 c-69 -16 -122 -101 -106 -167 4 -15 16 -40 26 -56 43 -60
-34 -57 1271 -57 l1194 0 34 23 c90 60 88 172 -5 241 -27 21 -33 21 -1204 23
-647 0 -1192 -2 -1210 -7z"/>
</g>
</svg>
